{
  "title": "Lone Survivor (2013) 720p HQ DVDScr x264 Pimp4003",
  "uid": 9474771,
  "size": 1506819209,
  "categoryP": "video",
  "categoryS": "hd___movies",
  "magnet": "?xt=urn:btih:4499dc69327b171cda6475308e7a03ac36ce3734&amp;dn=Lone+Survivor+%282013%29+720p+HQ+DVDScr+x264+Pimp4003&amp;tr=udp%3A%2F%2Ftracker.openbittorrent.com%3A80&amp;tr=udp%3A%2F%2Fopen.demonii.com%3A1337&amp;tr=udp%3A%2F%2Ftracker.coppersurfer.tk%3A6969&amp;tr=udp%3A%2F%2Fexodus.desync.com%3A6969",
  "seeders": 57,
  "leechers": 6,
  "uploader": "shawnmurthy",
  "files": -1,
  "time": 1389661461,
  "description": "Get all Pimp4003 newest releases first at \n\n[url]http://www.pimp4003.se[/url] OR \n\nWWW.PIMP4003.NET with VIP downloads speed\n\nRegister here and you can chat, request movies, view upcoming uploads and much more\n\nUPLOAD UNLIMITED IMAGES AND UP TO 10MB IN FILE SIZES FOR FREE....\n &lt;a href=&quot;\nhttp://www.piczhub.com&quot; rel=&quot;nofollow&quot; target=&quot;_NEW&quot;&gt;\nhttp://www.piczhub.com&lt;/a&gt;\n\n &lt;a href=&quot;\nhttp://someimage.com/qSRkItd&quot; rel=&quot;nofollow&quot; target=&quot;_NEW&quot;&gt;\nhttp://someimage.com/qSRkItd&lt;/a&gt; &lt;a href=&quot;\nhttp://someimage.com/fvXtO1q&quot; rel=&quot;nofollow&quot; target=&quot;_NEW&quot;&gt;\nhttp://someimage.com/fvXtO1q&lt;/a&gt; &lt;a href=&quot;\nhttp://someimage.com/dbWBhKp&quot; rel=&quot;nofollow&quot; target=&quot;_NEW&quot;&gt;\nhttp://someimage.com/dbWBhKp&lt;/a&gt; &lt;a href=&quot;\nhttp://someimage.com/NcY9WaZ&quot; rel=&quot;nofollow&quot; target=&quot;_NEW&quot;&gt;\nhttp://someimage.com/NcY9WaZ&lt;/a&gt; &lt;a href=&quot;\nhttp://someimage.com/mf0CYIN&quot; rel=&quot;nofollow&quot; target=&quot;_NEW&quot;&gt;\nhttp://someimage.com/mf0CYIN&lt;/a&gt; &lt;a href=&quot;\nhttp://someimage.com/w1QCnEV&quot; rel=&quot;nofollow&quot; target=&quot;_NEW&quot;&gt;\nhttp://someimage.com/w1QCnEV&lt;/a&gt;\n\n\n\nPIMP4003 AND PIMPRG PRESENTS\n\nLone Survivor (2013) 720p HQ DVDScr x264 Pimp4003\n &lt;a href=&quot;\nhttp://www.imdb.com/title/tt1091191/&quot; rel=&quot;nofollow&quot; target=&quot;_NEW&quot;&gt;\nhttp://www.imdb.com/title/tt1091191/&lt;/a&gt;\n\nBased on the failed June 28, 2005 mission &quot;Operation Red Wings&quot;. Four members of SEAL Team 10 were tasked with the mission to capture or kill notorious Taliban leader Ahmad Shahd.\n\nDirector: Peter Berg\nWriters: Peter Berg, Marcus Luttrell (book), 1 more credit Â»\nStars: Mark Wahlberg, Taylor Kitsch, Emile Hirsch | See full cast and crew Â»\n\nGenre: Action | Drama\nFile Size: 1.41GB\nSource: EVIL-DEAD\nLanguage: ENGLISH\n\nVideo\nID                                       : 1\nFormat                                   : AVC\nFormat/Info                              : Advanced Video Codec\nFormat profile                           : &lt;a class=&quot;__cf_email__&quot; href=&quot;/cdn-cgi/l/email-protection&quot; data-cfemail=&quot;89c1e0eee1c9c5baa7b8&quot;&gt;[email&amp;#160;protected]&lt;/a&gt;&lt;script cf-hash='f9e31' type=&quot;text/javascript&quot;&gt;\n/* &lt;![CDATA[ */!function(){try{var t=&quot;currentScript&quot;in document?document.currentScript:function(){for(var t=document.getElementsByTagName(&quot;script&quot;),e=t.length;e--;)if(t[e].getAttribute(&quot;cf-hash&quot;))return t[e]}();if(t&amp;&amp;t.previousSibling){var e,r,n,i,c=t.previousSibling,a=c.getAttribute(&quot;data-cfemail&quot;);if(a){for(e=&quot;&quot;,r=parseInt(a.substr(0,2),16),n=2;a.length-n;n+=2)i=parseInt(a.substr(n,2),16)^r,e+=String.fromCharCode(i);e=document.createTextNode(e),c.parentNode.replaceChild(e,c)}}}catch(u){}}();/* ]]&gt; */&lt;/script&gt;\nFormat settings, CABAC                   : Yes\nFormat settings, ReFrames                : 4 frames\nCodec ID                                 : V_MPEG4/ISO/AVC\nDuration                                 : 2h 0mn\nBit rate                                 : 1 208 Kbps\nWidth                                    : 1 280 pixels\nHeight                                   : 524 pixels\nDisplay aspect ratio                     : 2.40:1\nFrame rate mode                          : Constant\nFrame rate                               : 23.976 fps\nColor space                              : YUV\nChroma subsampling                       : 4:2:0\nBit depth                                : 8 bits\nScan type                                : Progressive\nBits/(Pixel*Frame)                       : 0.075\nStream size                              : 1 006 MiB (71%)\nWriting library                          : x264 core 138 r2358 9e941d1\nLanguage                                 : English\nDefault                                  : Yes\nForced                                   : No\n\nAudio\nID                                       : 2\nFormat                                   : AC-3\nFormat/Info                              : Audio Coding 3\nMode extension                           : CM (complete main)\nFormat settings, Endianness              : Big\nCodec ID                                 : A_AC3\nDuration                                 : 2h 0mn\nBit rate mode                            : Constant\nBit rate                                 : 448 Kbps\nChannel(s)                               : 6 channels\nChannel positions                        : Front: L C R, Side: L R, LFE\nSampling rate                            : 48.0 KHz\nBit depth                                : 16 bits\nCompression mode                         : Lossy\nDelay relative to video                  : 28ms\nStream size                              : 387 MiB (27%)\nLanguage                                 : English\nDefault                                  : Yes\nForced                                   : No\n\n\nALWAYS ON SEED BOX\n\nGREETZ TO PIMPRG AND ALL OTHER GROUPS\n\nPimp4003 | SUJAIDR | PIMPRG | JUNAIDZIA | RICKYKT | LOKKIODDIN | SCENEDL | Ali1997 | AND ALL OTHER P2P AND SCENE GROUPS\n",
  "parsed": {
    "xt": "urn:btih:4499dc69327b171cda6475308e7a03ac36ce3734",
    "dn": "Lone Survivor (2013) 720p HQ DVDScr x264 Pimp4003",
    "tr": [
      "udp://exodus.desync.com:6969",
      "udp://open.demonii.com:1337",
      "udp://tracker.coppersurfer.tk:6969",
      "udp://tracker.openbittorrent.com:80"
    ],
    "infoHash": "4499dc69327b171cda6475308e7a03ac36ce3734",
    "infoHashBuffer": {
      "type": "Buffer",
      "data": [
        68,
        153,
        220,
        105,
        50,
        123,
        23,
        28,
        218,
        100,
        117,
        48,
        142,
        122,
        3,
        172,
        54,
        206,
        55,
        52
      ]
    },
    "name": "Lone Survivor (2013) 720p HQ DVDScr x264 Pimp4003",
    "announce": [
      "udp://exodus.desync.com:6969",
      "udp://open.demonii.com:1337",
      "udp://tracker.coppersurfer.tk:6969",
      "udp://tracker.openbittorrent.com:80"
    ],
    "urlList": []
  },
  "previous": 3,
  "peers": 7,
  "last_updated": "2016-12-26T22:46:23.214Z"
}